<?xml version="1.0" encoding="UTF-8"?>
<!DOCTYPE svg PUBLIC "-//W3C//DTD SVG 1.1//EN" "http://www.w3.org/Graphics/SVG/1.1/DTD/svg11.dtd">
<svg xmlns="http://www.w3.org/2000/svg" version="1.1" width="1025px" height="420px" style="shape-rendering:geometricPrecision; text-rendering:geometricPrecision; image-rendering:optimizeQuality; fill-rule:evenodd; clip-rule:evenodd" xmlns:xlink="http://www.w3.org/1999/xlink">
<g><path style="opacity:1" fill="#fdfdfd" d="M -0.5,-0.5 C 341.167,-0.5 682.833,-0.5 1024.5,-0.5C 1024.5,139.5 1024.5,279.5 1024.5,419.5C 682.833,419.5 341.167,419.5 -0.5,419.5C -0.5,279.5 -0.5,139.5 -0.5,-0.5 Z"/></g>
<g><path style="opacity:1" fill="#010101" d="M 161.5,44.5 C 207.438,70.1374 253.105,96.304 298.5,123C 299.827,149.434 299.827,175.934 298.5,202.5C 276.135,215.011 254.135,228.011 232.5,241.5C 253.173,254.172 274.173,266.338 295.5,278C 297.255,278.72 298.089,279.887 298,281.5C 252.915,307.626 207.748,333.626 162.5,359.5C 139.833,346.5 117.167,333.5 94.5,320.5C 93.3334,267.836 93.1667,215.17 94,162.5C 116.249,149.626 138.416,136.626 160.5,123.5C 138.297,110.134 115.964,96.9674 93.5,84C 116.393,71.0591 139.06,57.8924 161.5,44.5 Z"/></g>
<g><path style="opacity:1" fill="#828282" d="M 164.5,125.5 C 163.502,150.328 163.169,175.328 163.5,200.5C 162.171,175.33 162.171,149.997 163.5,124.5C 164.107,124.624 164.44,124.957 164.5,125.5 Z"/></g>
<g><path style="opacity:1" fill="#373737" d="M 719.5,138.5 C 726.982,137.508 734.648,137.175 742.5,137.5C 742.5,133.5 742.5,129.5 742.5,125.5C 722.167,125.5 701.833,125.5 681.5,125.5C 681.5,129.5 681.5,133.5 681.5,137.5C 689.019,137.175 696.352,137.508 703.5,138.5C 695.833,138.5 688.167,138.5 680.5,138.5C 680.5,133.833 680.5,129.167 680.5,124.5C 701.5,124.5 722.5,124.5 743.5,124.5C 743.5,129.167 743.5,133.833 743.5,138.5C 735.5,138.5 727.5,138.5 719.5,138.5 Z"/></g>
<g><path style="opacity:1" fill="#070707" d="M 764.5,123.5 C 775.838,123.333 787.172,123.5 798.5,124C 803.032,128.867 807.866,133.367 813,137.5C 813.667,155.167 813.667,172.833 813,190.5C 808.319,195.349 803.485,200.015 798.5,204.5C 787.181,205.666 775.848,205.832 764.5,205C 759.047,200.515 753.881,195.681 749,190.5C 748.167,172.824 748.334,155.157 749.5,137.5C 754.546,132.784 759.546,128.117 764.5,123.5 Z"/></g>
<g><path style="opacity:1" fill="#fcfcfc" d="M 164.5,125.5 C 186.466,137.483 208.133,149.983 229.5,163C 207.594,175.756 185.594,188.256 163.5,200.5C 163.169,175.328 163.502,150.328 164.5,125.5 Z"/></g>
<g><path style="opacity:1" fill="#343434" d="M 375.5,125.5 C 360.167,125.5 344.833,125.5 329.5,125.5C 329.5,151.5 329.5,177.5 329.5,203.5C 328.502,177.339 328.169,151.005 328.5,124.5C 344.342,124.17 360.009,124.504 375.5,125.5 Z"/></g>
<g><path style="opacity:1" fill="#030303" d="M 375.5,125.5 C 379.916,128.806 384.083,132.473 388,136.5C 388.667,142.833 388.667,149.167 388,155.5C 385.022,157.311 382.522,159.644 380.5,162.5C 383.187,166.021 386.353,169.021 390,171.5C 390.667,178.5 390.667,185.5 390,192.5C 385.867,195.631 382.034,199.131 378.5,203C 362.17,203.5 345.837,203.667 329.5,203.5C 329.5,177.5 329.5,151.5 329.5,125.5C 344.833,125.5 360.167,125.5 375.5,125.5 Z"/></g>
<g><path style="opacity:1" fill="#2f2f2f" d="M 451.5,125.5 C 436.5,125.5 421.5,125.5 406.5,125.5C 406.5,151.5 406.5,177.5 406.5,203.5C 405.502,177.339 405.169,151.005 405.5,124.5C 421.009,124.17 436.342,124.504 451.5,125.5 Z"/></g>
<g><path style="opacity:1" fill="#030303" d="M 451.5,125.5 C 456.442,129.103 461.108,133.103 465.5,137.5C 466.665,146.482 466.832,155.482 466,164.5C 461.453,168.711 457.286,173.211 453.5,178C 458.379,186.262 463.379,194.428 468.5,202.5C 462.69,203.49 456.69,203.823 450.5,203.5C 445.303,194.944 439.969,186.444 434.5,178C 430.179,177.501 425.846,177.334 421.5,177.5C 421.5,186.167 421.5,194.833 421.5,203.5C 416.5,203.5 411.5,203.5 406.5,203.5C 406.5,177.5 406.5,151.5 406.5,125.5C 421.5,125.5 436.5,125.5 451.5,125.5 Z"/></g>
<g><path style="opacity:1" fill="#020202" d="M 477.5,124.5 C 491.833,124.5 506.167,124.5 520.5,124.5C 520.5,129.167 520.5,133.833 520.5,138.5C 515.833,138.5 511.167,138.5 506.5,138.5C 506.5,155.833 506.5,173.167 506.5,190.5C 511.167,190.5 515.833,190.5 520.5,190.5C 520.5,194.833 520.5,199.167 520.5,203.5C 506.167,203.5 491.833,203.5 477.5,203.5C 477.5,199.167 477.5,194.833 477.5,190.5C 482.167,190.5 486.833,190.5 491.5,190.5C 491.5,173.167 491.5,155.833 491.5,138.5C 486.833,138.5 482.167,138.5 477.5,138.5C 477.5,133.833 477.5,129.167 477.5,124.5 Z"/></g>
<g><path style="opacity:1" fill="#040404" d="M 587.5,124.5 C 587.5,128.833 587.5,133.167 587.5,137.5C 575.988,137.172 564.654,137.505 553.5,138.5C 551.229,140.266 549.063,142.266 547,144.5C 546.333,157.5 546.333,170.5 547,183.5C 549.167,185.667 551.333,187.833 553.5,190C 561.159,190.5 568.826,190.666 576.5,190.5C 576.5,184.167 576.5,177.833 576.5,171.5C 572.167,171.5 567.833,171.5 563.5,171.5C 563.5,166.833 563.5,162.167 563.5,157.5C 571.507,157.334 579.507,157.5 587.5,158C 589,159.5 590.5,161 592,162.5C 592.5,176.163 592.667,189.829 592.5,203.5C 576.83,203.667 561.163,203.5 545.5,203C 540.968,198.133 536.134,193.633 531,189.5C 530.333,172.833 530.333,156.167 531,139.5C 535.865,134.3 541.032,129.467 546.5,125C 560.163,124.5 573.829,124.333 587.5,124.5 Z"/></g>
<g><path style="opacity:1" fill="#646464" d="M 609.5,124.5 C 609.5,150.833 609.5,177.167 609.5,203.5C 614.5,203.5 619.5,203.5 624.5,203.5C 619.36,204.488 614.026,204.821 608.5,204.5C 608.169,177.661 608.502,150.995 609.5,124.5 Z"/></g>
<g><path style="opacity:1" fill="#000000" d="M 609.5,124.5 C 614.5,124.5 619.5,124.5 624.5,124.5C 624.5,135.5 624.5,146.5 624.5,157.5C 634.5,157.5 644.5,157.5 654.5,157.5C 654.5,146.5 654.5,135.5 654.5,124.5C 659.5,124.5 664.5,124.5 669.5,124.5C 669.5,150.833 669.5,177.167 669.5,203.5C 664.5,203.5 659.5,203.5 654.5,203.5C 654.5,192.5 654.5,181.5 654.5,170.5C 644.319,170.173 634.319,170.506 624.5,171.5C 624.5,182.167 624.5,192.833 624.5,203.5C 619.5,203.5 614.5,203.5 609.5,203.5C 609.5,177.167 609.5,150.833 609.5,124.5 Z"/></g>
<g><path style="opacity:1" fill="#000000" d="M 719.5,138.5 C 719.5,160.167 719.5,181.833 719.5,203.5C 714.5,203.5 709.5,203.5 704.5,203.5C 704.831,181.66 704.497,159.994 703.5,138.5C 696.352,137.508 689.019,137.175 681.5,137.5C 681.5,133.5 681.5,129.5 681.5,125.5C 701.833,125.5 722.167,125.5 742.5,125.5C 742.5,129.5 742.5,133.5 742.5,137.5C 734.648,137.175 726.982,137.508 719.5,138.5 Z"/></g>
<g><path style="opacity:1" fill="#020202" d="M 830.5,124.5 C 836.093,124.193 841.593,124.527 847,125.5C 856.667,142.167 866.333,158.833 876,175.5C 876.5,158.503 876.667,141.503 876.5,124.5C 881.833,124.5 887.167,124.5 892.5,124.5C 892.5,150.833 892.5,177.167 892.5,203.5C 886.575,203.808 880.741,203.475 875,202.5C 865.733,185.574 856.066,168.908 846,152.5C 845.5,169.497 845.333,186.497 845.5,203.5C 840.5,203.5 835.5,203.5 830.5,203.5C 830.5,177.167 830.5,150.833 830.5,124.5 Z"/></g>
<g><path style="opacity:1" fill="#4b4b4b" d="M 587.5,124.5 C 588.486,128.97 588.819,133.637 588.5,138.5C 576.833,138.5 565.167,138.5 553.5,138.5C 564.654,137.505 575.988,137.172 587.5,137.5C 587.5,133.167 587.5,128.833 587.5,124.5 Z"/></g>
<g><path style="opacity:1" fill="#fdfdfd" d="M 770.5,137.5 C 777.508,137.334 784.508,137.5 791.5,138C 793.333,139.833 795.167,141.667 797,143.5C 797.667,157.5 797.667,171.5 797,185.5C 795.167,187.333 793.333,189.167 791.5,191C 784.833,191.667 778.167,191.667 771.5,191C 769.612,188.81 767.445,186.977 765,185.5C 764.333,171.5 764.333,157.5 765,143.5C 767.04,141.63 768.873,139.63 770.5,137.5 Z"/></g>
<g><path style="opacity:1" fill="#fafafa" d="M 344.5,138.5 C 352.507,138.334 360.507,138.5 368.5,139C 374.008,144.936 373.675,150.603 367.5,156C 359.841,156.5 352.174,156.666 344.5,156.5C 344.5,150.5 344.5,144.5 344.5,138.5 Z"/></g>
<g><path style="opacity:1" fill="#fafafa" d="M 421.5,138.5 C 429.507,138.334 437.507,138.5 445.5,139C 449.924,141.987 451.591,146.153 450.5,151.5C 450.167,154.167 449.833,156.833 449.5,159.5C 447.684,160.815 446.017,162.315 444.5,164C 436.841,164.5 429.174,164.666 421.5,164.5C 421.5,155.833 421.5,147.167 421.5,138.5 Z"/></g>
<g><path style="opacity:1" fill="#767676" d="M 703.5,138.5 C 704.497,159.994 704.831,181.66 704.5,203.5C 709.5,203.5 714.5,203.5 719.5,203.5C 714.36,204.488 709.026,204.821 703.5,204.5C 703.5,182.5 703.5,160.5 703.5,138.5 Z"/></g>
<g><path style="opacity:1" fill="#f9f9f9" d="M 344.5,170.5 C 352.507,170.334 360.507,170.5 368.5,171C 373.034,172.857 375.034,176.191 374.5,181C 375.209,184.935 373.876,187.935 370.5,190C 361.84,190.5 353.173,190.666 344.5,190.5C 344.5,183.833 344.5,177.167 344.5,170.5 Z"/></g>
<g><path style="opacity:1" fill="#8d8d8d" d="M 624.5,171.5 C 634.319,170.506 644.319,170.173 654.5,170.5C 654.5,181.5 654.5,192.5 654.5,203.5C 653.506,193.013 653.172,182.346 653.5,171.5C 643.833,171.5 634.167,171.5 624.5,171.5 Z"/></g>
<g><path style="opacity:1" fill="#828282" d="M 163.5,203.5 C 163.169,228.672 163.502,253.672 164.5,278.5C 164.44,279.043 164.107,279.376 163.5,279.5C 162.171,254.003 162.171,228.67 163.5,203.5 Z"/></g>
<g><path style="opacity:1" fill="#939393" d="M 468.5,202.5 C 469.043,202.56 469.376,202.893 469.5,203.5C 463.012,204.817 456.678,204.817 450.5,203.5C 456.69,203.823 462.69,203.49 468.5,202.5 Z"/></g>
<g><path style="opacity:1" fill="#fcfcfc" d="M 163.5,203.5 C 185.667,215.413 207.334,228.08 228.5,241.5C 207.466,254.35 186.133,266.684 164.5,278.5C 163.502,253.672 163.169,228.672 163.5,203.5 Z"/></g>
<g><path style="opacity:1" fill="#2c2c2c" d="M 340.5,226.5 C 350.987,225.506 361.654,225.172 372.5,225.5C 372.813,229.042 372.479,232.375 371.5,235.5C 371.5,232.5 371.5,229.5 371.5,226.5C 361.167,226.5 350.833,226.5 340.5,226.5 Z"/></g>
<g><path style="opacity:1" fill="#070707" d="M 452.5,224.5 C 460.84,224.334 469.173,224.5 477.5,225C 481.633,228.131 485.466,231.631 489,235.5C 489.667,248.833 489.667,262.167 489,275.5C 485.201,278.297 481.701,281.464 478.5,285C 469.5,285.667 460.5,285.667 451.5,285C 448.318,281.651 444.985,278.484 441.5,275.5C 440.334,262.179 440.167,248.846 441,235.5C 445.335,232.331 449.168,228.664 452.5,224.5 Z"/></g>
<g><path style="opacity:1" fill="#060606" d="M 340.5,226.5 C 350.833,226.5 361.167,226.5 371.5,226.5C 371.5,229.5 371.5,232.5 371.5,235.5C 363.16,235.334 354.827,235.5 346.5,236C 341.636,240.035 341.302,244.368 345.5,249C 357.656,246.606 367.49,250.106 375,259.5C 375.667,264.833 375.667,270.167 375,275.5C 371.535,277.963 368.369,280.796 365.5,284C 354.172,284.5 342.838,284.667 331.5,284.5C 331.5,281.167 331.5,277.833 331.5,274.5C 340.839,274.666 350.173,274.5 359.5,274C 360.931,273.535 362.097,272.701 363,271.5C 364.443,266.788 363.277,262.955 359.5,260C 347.982,262.117 338.482,258.95 331,250.5C 330.333,245.5 330.333,240.5 331,235.5C 334.036,232.296 337.203,229.296 340.5,226.5 Z"/></g>
<g><path style="opacity:1" fill="#030303" d="M 398.5,266.5 C 397.51,272.31 397.177,278.31 397.5,284.5C 393.833,284.5 390.167,284.5 386.5,284.5C 386.5,264.833 386.5,245.167 386.5,225.5C 397.838,225.333 409.172,225.5 420.5,226C 424.299,228.797 427.799,231.964 431,235.5C 431.667,242.5 431.667,249.5 431,256.5C 427.799,260.036 424.299,263.203 420.5,266C 413.174,266.5 405.841,266.666 398.5,266.5 Z"/></g>
<g><path style="opacity:1" fill="#393939" d="M 536.5,226.5 C 525.167,226.5 513.833,226.5 502.5,226.5C 502.5,245.833 502.5,265.167 502.5,284.5C 501.503,265.007 501.17,245.34 501.5,225.5C 513.345,225.172 525.012,225.505 536.5,226.5 Z"/></g>
<g><path style="opacity:1" fill="#040404" d="M 536.5,226.5 C 539.833,229.664 543.333,232.664 547,235.5C 547.667,242.167 547.667,248.833 547,255.5C 543.767,258.733 540.6,261.9 537.5,265C 540.979,271.304 544.646,277.471 548.5,283.5C 544.366,284.485 540.032,284.818 535.5,284.5C 531.723,278.216 527.723,272.05 523.5,266C 520.183,265.502 516.85,265.335 513.5,265.5C 513.5,271.833 513.5,278.167 513.5,284.5C 509.833,284.5 506.167,284.5 502.5,284.5C 502.5,265.167 502.5,245.833 502.5,226.5C 513.833,226.5 525.167,226.5 536.5,226.5 Z"/></g>
<g><path style="opacity:1" fill="#040404" d="M 552.5,225.5 C 567.833,225.5 583.167,225.5 598.5,225.5C 598.5,228.833 598.5,232.167 598.5,235.5C 592.833,235.5 587.167,235.5 581.5,235.5C 581.5,251.833 581.5,268.167 581.5,284.5C 577.5,284.5 573.5,284.5 569.5,284.5C 569.5,268.167 569.5,251.833 569.5,235.5C 563.833,235.5 558.167,235.5 552.5,235.5C 552.5,232.167 552.5,228.833 552.5,225.5 Z"/></g>
<g><path style="opacity:1" fill="#070707" d="M 637.5,284.5 C 626.5,284.5 615.5,284.5 604.5,284.5C 604.5,281.5 604.5,278.5 604.5,275.5C 613.682,275.827 622.682,275.493 631.5,274.5C 637.689,270.192 638.023,265.525 632.5,260.5C 625.858,259.669 619.191,259.169 612.5,259C 609.651,255.984 606.651,253.15 603.5,250.5C 602.338,245.533 602.171,240.533 603,235.5C 606.799,232.703 610.299,229.536 613.5,226C 623.828,225.5 634.161,225.334 644.5,225.5C 644.5,228.833 644.5,232.167 644.5,235.5C 636.16,235.334 627.827,235.5 619.5,236C 613.254,239.822 612.921,244.155 618.5,249C 624.833,249.333 631.167,249.667 637.5,250C 640.701,253.536 644.201,256.703 648,259.5C 648.829,264.864 648.663,270.198 647.5,275.5C 644.147,278.522 640.813,281.522 637.5,284.5 Z"/></g>
<g><path style="opacity:1" fill="#060606" d="M 717.5,283.5 C 712.26,284.449 706.927,284.782 701.5,284.5C 698.317,270.435 694.817,256.435 691,242.5C 687.409,256.446 683.909,270.446 680.5,284.5C 675.073,284.782 669.74,284.449 664.5,283.5C 659.832,264.163 655.166,244.829 650.5,225.5C 654.5,225.5 658.5,225.5 662.5,225.5C 665.487,240.958 668.987,256.292 673,271.5C 676.82,256.223 680.32,240.889 683.5,225.5C 688.5,225.5 693.5,225.5 698.5,225.5C 701.996,240.819 705.496,256.153 709,271.5C 712.823,256.223 716.323,240.89 719.5,225.5C 723.5,225.5 727.5,225.5 731.5,225.5C 727.143,244.929 722.476,264.262 717.5,283.5 Z"/></g>
<g><path style="opacity:1" fill="#050505" d="M 780.5,235.5 C 770.5,235.5 760.5,235.5 750.5,235.5C 750.5,240.5 750.5,245.5 750.5,250.5C 758.5,250.5 766.5,250.5 774.5,250.5C 774.5,253.833 774.5,257.167 774.5,260.5C 766.833,260.5 759.167,260.5 751.5,260.5C 751.5,265.167 751.5,269.833 751.5,274.5C 761.5,274.5 771.5,274.5 781.5,274.5C 781.5,277.833 781.5,281.167 781.5,284.5C 767.5,284.5 753.5,284.5 739.5,284.5C 739.5,264.833 739.5,245.167 739.5,225.5C 753.167,225.5 766.833,225.5 780.5,225.5C 780.5,228.833 780.5,232.167 780.5,235.5 Z"/></g>
<g><path style="opacity:1" fill="#080808" d="M 839.5,284.5 C 835.069,284.769 830.735,284.436 826.5,283.5C 826.268,274.032 821.434,270.698 812,273.5C 802.566,270.698 797.732,274.032 797.5,283.5C 793.265,284.436 788.931,284.769 784.5,284.5C 790.89,265.498 797.39,246.498 804,227.5C 806.383,226.234 809.05,225.568 812,225.5C 814.95,225.568 817.617,226.234 820,227.5C 826.61,246.498 833.11,265.498 839.5,284.5 Z"/></g>
<g><path style="opacity:1" fill="#030303" d="M 847.5,225.5 C 858.838,225.333 870.172,225.5 881.5,226C 885.299,228.797 888.799,231.964 892,235.5C 892.667,242.167 892.667,248.833 892,255.5C 888.651,258.682 885.484,262.015 882.5,265.5C 886.303,271.801 890.303,277.968 894.5,284C 889.833,284.667 885.167,284.667 880.5,284C 876.708,278.251 873.042,272.418 869.5,266.5C 865.893,265.511 862.226,265.177 858.5,265.5C 858.5,271.833 858.5,278.167 858.5,284.5C 854.833,284.5 851.167,284.5 847.5,284.5C 847.5,264.833 847.5,245.167 847.5,225.5 Z"/></g>
<g><path style="opacity:1" fill="#f9f9f9" d="M 457.5,234.5 C 462.511,234.334 467.511,234.501 472.5,235C 474,236.5 475.5,238 477,239.5C 477.667,250.167 477.667,260.833 477,271.5C 475.229,272.304 473.729,273.471 472.5,275C 467.5,275.667 462.5,275.667 457.5,275C 456,273.5 454.5,272 453,270.5C 452.333,260.167 452.333,249.833 453,239.5C 454.758,237.917 456.258,236.25 457.5,234.5 Z"/></g>
<g><path style="opacity:1" fill="#fcfcfc" d="M 415.5,236.5 C 418.968,238.617 420.302,241.784 419.5,246C 420.302,250.216 418.968,253.383 415.5,255.5C 409.833,255.5 404.167,255.5 398.5,255.5C 398.5,249.167 398.5,242.833 398.5,236.5C 404.167,236.5 409.833,236.5 415.5,236.5 Z"/></g>
<g><path style="opacity:1" fill="#f5f5f5" d="M 513.5,235.5 C 519.176,235.334 524.843,235.501 530.5,236C 531.729,237.529 533.229,238.696 535,239.5C 535.667,243.5 535.667,247.5 535,251.5C 533.59,252.787 532.09,253.954 530.5,255C 524.843,255.499 519.176,255.666 513.5,255.5C 513.5,248.833 513.5,242.167 513.5,235.5 Z"/></g>
<g><path style="opacity:1" fill="#8f8f8f" d="M 780.5,235.5 C 771.014,236.494 761.348,236.827 751.5,236.5C 751.5,240.833 751.5,245.167 751.5,249.5C 759.352,249.175 767.018,249.508 774.5,250.5C 766.5,250.5 758.5,250.5 750.5,250.5C 750.5,245.5 750.5,240.5 750.5,235.5C 760.5,235.5 770.5,235.5 780.5,235.5 Z"/></g>
<g><path style="opacity:1" fill="#8b8b8b" d="M 876.5,236.5 C 870.833,236.5 865.167,236.5 859.5,236.5C 859.5,242.833 859.5,249.167 859.5,255.5C 858.509,249.021 858.176,242.354 858.5,235.5C 864.69,235.177 870.69,235.51 876.5,236.5 Z"/></g>
<g><path style="opacity:1" fill="#fafafa" d="M 876.5,236.5 C 877.794,237.29 878.961,238.29 880,239.5C 880.667,243.5 880.667,247.5 880,251.5C 878.833,252.667 877.667,253.833 876.5,255C 870.843,255.499 865.176,255.666 859.5,255.5C 859.5,249.167 859.5,242.833 859.5,236.5C 865.167,236.5 870.833,236.5 876.5,236.5 Z"/></g>
<g><path style="opacity:1" fill="#f0f0f0" d="M 819.5,261.5 C 814.695,262.487 809.695,262.821 804.5,262.5C 806.29,254.294 808.79,246.294 812,238.5C 815.006,246.018 817.506,253.685 819.5,261.5 Z"/></g>
<g><path style="opacity:1" fill="#929292" d="M 415.5,236.5 C 409.833,236.5 404.167,236.5 398.5,236.5C 398.5,242.833 398.5,249.167 398.5,255.5C 404.167,255.5 409.833,255.5 415.5,255.5C 409.69,256.49 403.69,256.823 397.5,256.5C 397.5,249.5 397.5,242.5 397.5,235.5C 403.69,235.177 409.69,235.51 415.5,236.5 Z"/></g>
<g><path style="opacity:1" fill="#5f5f5f" d="M 819.5,261.5 C 820.043,261.56 820.376,261.893 820.5,262.5C 815.014,263.815 809.68,263.815 804.5,262.5C 809.695,262.821 814.695,262.487 819.5,261.5 Z"/></g>
<g><path style="opacity:1" fill="#7a7a7a" d="M 398.5,266.5 C 398.5,272.833 398.5,279.167 398.5,285.5C 394.298,285.817 390.298,285.483 386.5,284.5C 390.167,284.5 393.833,284.5 397.5,284.5C 397.177,278.31 397.51,272.31 398.5,266.5 Z"/></g>
<g><path style="opacity:1" fill="#5a5a5a" d="M 631.5,274.5 C 622.682,275.493 613.682,275.827 604.5,275.5C 604.5,278.5 604.5,281.5 604.5,284.5C 615.5,284.5 626.5,284.5 637.5,284.5C 626.346,285.495 615.012,285.828 603.5,285.5C 603.5,281.833 603.5,278.167 603.5,274.5C 612.833,274.5 622.167,274.5 631.5,274.5 Z"/></g>
<g><path style="opacity:1" fill="#949494" d="M 548.5,283.5 C 549.043,283.56 549.376,283.893 549.5,284.5C 544.682,285.812 540.015,285.812 535.5,284.5C 540.032,284.818 544.366,284.485 548.5,283.5 Z"/></g>
<g><path style="opacity:1" fill="#989898" d="M 664.5,283.5 C 669.74,284.449 675.073,284.782 680.5,284.5C 678.022,285.164 675.355,285.497 672.5,285.5C 669.41,285.478 666.743,284.812 664.5,283.5 Z"/></g>
<g><path style="opacity:1" fill="#999999" d="M 717.5,283.5 C 715.257,284.812 712.59,285.478 709.5,285.5C 706.645,285.497 703.978,285.164 701.5,284.5C 706.927,284.782 712.26,284.449 717.5,283.5 Z"/></g>
<g><path style="opacity:1" fill="#999999" d="M 797.5,283.5 C 795.777,284.8 793.61,285.467 791,285.5C 788.639,285.496 786.473,285.163 784.5,284.5C 788.931,284.769 793.265,284.436 797.5,283.5 Z"/></g>
<g><path style="opacity:1" fill="#9a9a9a" d="M 826.5,283.5 C 830.735,284.436 835.069,284.769 839.5,284.5C 837.527,285.163 835.361,285.496 833,285.5C 830.39,285.467 828.223,284.8 826.5,283.5 Z"/></g>
<g><path style="opacity:1" fill="#0e0e0e" d="M 361.5,315.5 C 366.179,315.334 370.845,315.501 375.5,316C 377,317.5 378.5,319 380,320.5C 380.831,327.856 380.665,335.189 379.5,342.5C 378.019,343.48 376.685,344.647 375.5,346C 370.5,346.667 365.5,346.667 360.5,346C 359,344.5 357.5,343 356,341.5C 355.333,334.5 355.333,327.5 356,320.5C 357.73,318.598 359.563,316.931 361.5,315.5 Z"/></g>
<g><path style="opacity:1" fill="#3e3e3e" d="M 493.5,316.5 C 485.833,316.5 478.167,316.5 470.5,316.5C 470.5,317.5 470.5,318.5 470.5,319.5C 473.385,319.194 476.052,319.527 478.5,320.5C 475.5,320.5 472.5,320.5 469.5,320.5C 469.5,318.833 469.5,317.167 469.5,315.5C 477.684,315.174 485.684,315.508 493.5,316.5 Z"/></g>
<g><path style="opacity:1" fill="#161616" d="M 502.5,315.5 C 507.179,315.334 511.845,315.501 516.5,316C 518.017,317.685 519.684,319.185 521.5,320.5C 522.664,327.476 522.831,334.476 522,341.5C 520.833,342.667 519.667,343.833 518.5,345C 512.947,346.57 507.281,346.903 501.5,346C 500,344.5 498.5,343 497,341.5C 496.333,334.5 496.333,327.5 497,320.5C 499.191,319.167 501.024,317.5 502.5,315.5 Z"/></g>
<g><path style="opacity:1" fill="#040404" d="M 574.5,315.5 C 579.511,315.334 584.511,315.501 589.5,316C 591,317.5 592.5,319 594,320.5C 594.667,327.5 594.667,334.5 594,341.5C 592.5,343 591,344.5 589.5,346C 584.5,346.667 579.5,346.667 574.5,346C 573,344.5 571.5,343 570,341.5C 569.333,334.5 569.333,327.5 570,320.5C 571.707,318.963 573.207,317.296 574.5,315.5 Z"/></g>
<g><path style="opacity:1" fill="#030303" d="M 710.5,315.5 C 715.511,315.334 720.511,315.501 725.5,316C 727,317.5 728.5,319 730,320.5C 730.667,327.5 730.667,334.5 730,341.5C 728.5,343 727,344.5 725.5,346C 720.5,346.667 715.5,346.667 710.5,346C 709,344.5 707.5,343 706,341.5C 705.333,334.5 705.333,327.5 706,320.5C 707.707,318.963 709.207,317.296 710.5,315.5 Z"/></g>
<g><path style="opacity:1" fill="#585858" d="M 815.5,316.5 C 807.833,316.5 800.167,316.5 792.5,316.5C 792.5,317.5 792.5,318.5 792.5,319.5C 795.5,319.5 798.5,319.5 801.5,319.5C 801.5,328.5 801.5,337.5 801.5,346.5C 800.507,338.016 800.174,329.349 800.5,320.5C 797.5,320.5 794.5,320.5 791.5,320.5C 791.5,318.833 791.5,317.167 791.5,315.5C 799.684,315.174 807.684,315.508 815.5,316.5 Z"/></g>
<g><path style="opacity:1" fill="#494949" d="M 830.5,320.5 C 830.167,320.5 829.833,320.5 829.5,320.5C 830.919,319.549 832.585,319.216 834.5,319.5C 834.5,318.5 834.5,317.5 834.5,316.5C 829.5,316.5 824.5,316.5 819.5,316.5C 819.5,317.5 819.5,318.5 819.5,319.5C 818.566,318.432 818.232,317.099 818.5,315.5C 824.167,315.5 829.833,315.5 835.5,315.5C 835.5,317.167 835.5,318.833 835.5,320.5C 833.833,320.5 832.167,320.5 830.5,320.5 Z"/></g>
<g><path style="opacity:1" fill="#040404" d="M 845.5,315.5 C 850.511,315.334 855.511,315.501 860.5,316C 862,317.5 863.5,319 865,320.5C 865.667,327.5 865.667,334.5 865,341.5C 863.5,343 862,344.5 860.5,346C 855.5,346.667 850.5,346.667 845.5,346C 844,344.5 842.5,343 841,341.5C 840.333,334.5 840.333,327.5 841,320.5C 842.707,318.963 844.207,317.296 845.5,315.5 Z"/></g>
<g><path style="opacity:1" fill="#0f0f0f" d="M 342.5,328.5 C 343.483,324.702 343.817,320.702 343.5,316.5C 344.833,316.5 346.167,316.5 347.5,316.5C 347.5,326.5 347.5,336.5 347.5,346.5C 345.833,346.5 344.167,346.5 342.5,346.5C 342.5,342.167 342.5,337.833 342.5,333.5C 338.167,333.5 333.833,333.5 329.5,333.5C 329.5,337.833 329.5,342.167 329.5,346.5C 327.833,346.5 326.167,346.5 324.5,346.5C 324.5,336.167 324.5,325.833 324.5,315.5C 326.167,315.5 327.833,315.5 329.5,315.5C 329.5,319.833 329.5,324.167 329.5,328.5C 333.833,328.5 338.167,328.5 342.5,328.5 Z"/></g>
<g><path style="opacity:1" fill="#575757" d="M 347.5,346.5 C 347.5,336.5 347.5,326.5 347.5,316.5C 346.167,316.5 344.833,316.5 343.5,316.5C 343.817,320.702 343.483,324.702 342.5,328.5C 342.5,324.167 342.5,319.833 342.5,315.5C 344.5,315.5 346.5,315.5 348.5,315.5C 348.828,326.014 348.494,336.347 347.5,346.5 Z"/></g>
<g><path style="opacity:1" fill="#070707" d="M 388.5,315.5 C 390.604,315.201 392.604,315.534 394.5,316.5C 398.167,322.5 401.833,328.5 405.5,334.5C 409.669,328.834 413.335,322.834 416.5,316.5C 418.396,315.534 420.396,315.201 422.5,315.5C 422.5,325.833 422.5,336.167 422.5,346.5C 420.833,346.5 419.167,346.5 417.5,346.5C 417.666,339.492 417.5,332.492 417,325.5C 414.365,330.298 411.532,334.965 408.5,339.5C 406.5,340.833 404.5,340.833 402.5,339.5C 399.918,334.667 397.085,330 394,325.5C 393.5,332.492 393.334,339.492 393.5,346.5C 391.833,346.5 390.167,346.5 388.5,346.5C 388.5,336.167 388.5,325.833 388.5,315.5 Z"/></g>
<g><path style="opacity:1" fill="#070707" d="M 452.5,319.5 C 447.167,319.5 441.833,319.5 436.5,319.5C 436.5,322.833 436.5,326.167 436.5,329.5C 440.833,329.5 445.167,329.5 449.5,329.5C 449.5,330.833 449.5,332.167 449.5,333.5C 445.5,333.5 441.5,333.5 437.5,333.5C 436.523,336.287 436.19,339.287 436.5,342.5C 441.833,342.5 447.167,342.5 452.5,342.5C 453.434,343.568 453.768,344.901 453.5,346.5C 446.167,346.5 438.833,346.5 431.5,346.5C 431.5,336.167 431.5,325.833 431.5,315.5C 438.5,315.5 445.5,315.5 452.5,315.5C 452.5,316.833 452.5,318.167 452.5,319.5 Z"/></g>
<g><path style="opacity:1" fill="#171717" d="M 493.5,316.5 C 493.5,317.833 493.5,319.167 493.5,320.5C 490.5,320.5 487.5,320.5 484.5,320.5C 484.5,329.167 484.5,337.833 484.5,346.5C 482.5,346.5 480.5,346.5 478.5,346.5C 478.5,337.833 478.5,329.167 478.5,320.5C 476.052,319.527 473.385,319.194 470.5,319.5C 470.5,318.5 470.5,317.5 470.5,316.5C 478.167,316.5 485.833,316.5 493.5,316.5 Z"/></g>
<g><path style="opacity:1" fill="#0e0e0e" d="M 540.5,315.5 C 542.467,315.261 544.301,315.594 546,316.5C 548.349,321.198 550.682,325.864 553,330.5C 555.754,325.992 558.254,321.326 560.5,316.5C 562.5,315.167 564.5,315.167 566.5,316.5C 563,322.833 559.5,329.167 556,335.5C 555.501,339.152 555.335,342.818 555.5,346.5C 553.833,346.5 552.167,346.5 550.5,346.5C 550.666,342.486 550.499,338.486 550,334.5C 546.274,328.381 543.107,322.048 540.5,315.5 Z"/></g>
<g><path style="opacity:1" fill="#4e4e4e" d="M 607.5,339.5 C 606.508,332.018 606.175,324.352 606.5,316.5C 605.167,316.5 603.833,316.5 602.5,316.5C 602.5,324.833 602.5,333.167 602.5,341.5C 601.507,333.016 601.174,324.349 601.5,315.5C 603.5,315.5 605.5,315.5 607.5,315.5C 607.5,323.5 607.5,331.5 607.5,339.5 Z"/></g>
<g><path style="opacity:1" fill="#030303" d="M 602.5,341.5 C 602.5,333.167 602.5,324.833 602.5,316.5C 603.833,316.5 605.167,316.5 606.5,316.5C 606.175,324.352 606.508,332.018 607.5,339.5C 608.692,341.922 610.692,342.922 613.5,342.5C 616.325,342.881 618.491,341.881 620,339.5C 620.5,331.507 620.666,323.507 620.5,315.5C 622.167,315.5 623.833,315.5 625.5,315.5C 625.666,324.173 625.5,332.84 625,341.5C 622.377,345.874 618.543,347.541 613.5,346.5C 608.477,347.574 604.81,345.907 602.5,341.5 Z"/></g>
<g><path style="opacity:1" fill="#0d0d0d" d="M 634.5,315.5 C 640.509,315.334 646.509,315.501 652.5,316C 657.316,320.055 658.816,325.222 657,331.5C 655.108,333.054 653.608,334.888 652.5,337C 654.093,340.262 656.093,343.262 658.5,346C 656.098,346.814 653.765,346.647 651.5,345.5C 649.678,339.319 645.678,336.319 639.5,336.5C 639.5,339.833 639.5,343.167 639.5,346.5C 637.833,346.5 636.167,346.5 634.5,346.5C 634.5,336.167 634.5,325.833 634.5,315.5 Z"/></g>
<g><path style="opacity:1" fill="#0d0d0d" d="M 681.5,316.5 C 686.833,316.5 692.167,316.5 697.5,316.5C 697.5,317.5 697.5,318.5 697.5,319.5C 692.968,319.182 688.634,319.515 684.5,320.5C 681.027,322.563 680.694,325.063 683.5,328C 689.769,327.173 694.935,329.007 699,333.5C 700.787,339.034 699.287,343.201 694.5,346C 688.843,346.499 683.176,346.666 677.5,346.5C 677.5,345.167 677.5,343.833 677.5,342.5C 682.511,342.666 687.511,342.499 692.5,342C 695.167,339.333 695.167,336.667 692.5,334C 686.319,334.721 681.152,332.887 677,328.5C 675.311,323.177 676.811,319.177 681.5,316.5 Z"/></g>
<g><path style="opacity:1" fill="#010101" d="M 738.5,315.5 C 740.167,315.5 741.833,315.5 743.5,315.5C 743.5,324.5 743.5,333.5 743.5,342.5C 748.5,342.5 753.5,342.5 758.5,342.5C 758.5,343.833 758.5,345.167 758.5,346.5C 751.833,346.5 745.167,346.5 738.5,346.5C 738.5,336.167 738.5,325.833 738.5,315.5 Z"/></g>
<g><path style="opacity:1" fill="#484848" d="M 768.5,339.5 C 767.508,332.018 767.175,324.352 767.5,316.5C 766.167,316.5 764.833,316.5 763.5,316.5C 763.5,324.833 763.5,333.167 763.5,341.5C 762.507,333.016 762.174,324.349 762.5,315.5C 764.5,315.5 766.5,315.5 768.5,315.5C 768.5,323.5 768.5,331.5 768.5,339.5 Z"/></g>
<g><path style="opacity:1" fill="#030303" d="M 763.5,341.5 C 763.5,333.167 763.5,324.833 763.5,316.5C 764.833,316.5 766.167,316.5 767.5,316.5C 767.175,324.352 767.508,332.018 768.5,339.5C 769.692,341.922 771.692,342.922 774.5,342.5C 777.325,342.881 779.491,341.881 781,339.5C 781.5,331.507 781.666,323.507 781.5,315.5C 783.167,315.5 784.833,315.5 786.5,315.5C 786.666,324.173 786.5,332.84 786,341.5C 783.377,345.874 779.543,347.541 774.5,346.5C 769.477,347.574 765.81,345.907 763.5,341.5 Z"/></g>
<g><path style="opacity:1" fill="#070707" d="M 815.5,316.5 C 815.5,317.833 815.5,319.167 815.5,320.5C 812.5,320.5 809.5,320.5 806.5,320.5C 806.5,329.167 806.5,337.833 806.5,346.5C 804.833,346.5 803.167,346.5 801.5,346.5C 801.5,337.5 801.5,328.5 801.5,319.5C 798.5,319.5 795.5,319.5 792.5,319.5C 792.5,318.5 792.5,317.5 792.5,316.5C 800.167,316.5 807.833,316.5 815.5,316.5 Z"/></g>
<g><path style="opacity:1" fill="#040404" d="M 829.5,320.5 C 829.5,327.833 829.5,335.167 829.5,342.5C 831.167,342.5 832.833,342.5 834.5,342.5C 835.434,343.568 835.768,344.901 835.5,346.5C 830.167,346.5 824.833,346.5 819.5,346.5C 819.5,345.167 819.5,343.833 819.5,342.5C 821.167,342.5 822.833,342.5 824.5,342.5C 824.5,335.167 824.5,327.833 824.5,320.5C 822.585,320.784 820.919,320.451 819.5,319.5C 819.5,318.5 819.5,317.5 819.5,316.5C 824.5,316.5 829.5,316.5 834.5,316.5C 834.5,317.5 834.5,318.5 834.5,319.5C 832.585,319.216 830.919,319.549 829.5,320.5 Z"/></g>
<g><path style="opacity:1" fill="#0a0a0a" d="M 873.5,315.5 C 876.044,315.104 878.211,315.771 880,317.5C 883.414,323.997 887.081,330.33 891,336.5C 891.5,329.508 891.666,322.508 891.5,315.5C 893.167,315.5 894.833,315.5 896.5,315.5C 896.5,325.833 896.5,336.167 896.5,346.5C 894.396,346.799 892.396,346.466 890.5,345.5C 886.919,338.67 883.086,332.003 879,325.5C 878.5,332.492 878.334,339.492 878.5,346.5C 876.833,346.5 875.167,346.5 873.5,346.5C 873.5,336.167 873.5,325.833 873.5,315.5 Z"/></g>
<g><path style="opacity:1" fill="#4e4e4e" d="M 681.5,316.5 C 686.975,315.511 692.642,315.178 698.5,315.5C 698.5,317.167 698.5,318.833 698.5,320.5C 693.833,320.5 689.167,320.5 684.5,320.5C 688.634,319.515 692.968,319.182 697.5,319.5C 697.5,318.5 697.5,317.5 697.5,316.5C 692.167,316.5 686.833,316.5 681.5,316.5 Z"/></g>
<g><path style="opacity:1" fill="#fbfbfb" d="M 363.5,319.5 C 366.518,319.335 369.518,319.502 372.5,320C 373.333,320.833 374.167,321.667 375,322.5C 375.667,328.167 375.667,333.833 375,339.5C 371.743,342.428 367.909,343.262 363.5,342C 363,341.5 362.5,341 362,340.5C 361.333,334.167 361.333,327.833 362,321.5C 362.717,320.956 363.217,320.289 363.5,319.5 Z"/></g>
<g><path style="opacity:1" fill="#f9f9f9" d="M 505.5,319.5 C 509.603,318.769 513.103,319.769 516,322.5C 516.667,328.5 516.667,334.5 516,340.5C 511.601,343.106 507.267,343.106 503,340.5C 502.169,334.141 502.336,327.807 503.5,321.5C 504.522,321.145 505.189,320.478 505.5,319.5 Z"/></g>
<g><path style="opacity:1" fill="#f4f4f4" d="M 577.5,319.5 C 580.518,319.335 583.518,319.502 586.5,320C 587.333,320.833 588.167,321.667 589,322.5C 589.667,328.167 589.667,333.833 589,339.5C 584.333,343.5 579.667,343.5 575,339.5C 574.333,333.833 574.333,328.167 575,322.5C 576.045,321.627 576.878,320.627 577.5,319.5 Z"/></g>
<g><path style="opacity:1" fill="#f5f5f5" d="M 713.5,319.5 C 716.518,319.335 719.518,319.502 722.5,320C 723.333,320.833 724.167,321.667 725,322.5C 725.667,328.167 725.667,333.833 725,339.5C 720.333,343.5 715.667,343.5 711,339.5C 710.333,333.833 710.333,328.167 711,322.5C 712.045,321.627 712.878,320.627 713.5,319.5 Z"/></g>
<g><path style="opacity:1" fill="#b4b4b4" d="M 829.5,320.5 C 829.833,320.5 830.167,320.5 830.5,320.5C 830.5,327.5 830.5,334.5 830.5,341.5C 832.099,341.232 833.432,341.566 834.5,342.5C 832.833,342.5 831.167,342.5 829.5,342.5C 829.5,335.167 829.5,327.833 829.5,320.5 Z"/></g>
<g><path style="opacity:1" fill="#f4f4f4" d="M 848.5,319.5 C 851.518,319.335 854.518,319.502 857.5,320C 858.333,320.833 859.167,321.667 860,322.5C 860.667,328.167 860.667,333.833 860,339.5C 855.333,343.5 850.667,343.5 846,339.5C 845.333,333.833 845.333,328.167 846,322.5C 847.045,321.627 847.878,320.627 848.5,319.5 Z"/></g>
<g><path style="opacity:1" fill="#f5f5f5" d="M 639.5,320.5 C 643.182,320.335 646.848,320.501 650.5,321C 653.167,324.333 653.167,327.667 650.5,331C 646.848,331.499 643.182,331.665 639.5,331.5C 639.5,327.833 639.5,324.167 639.5,320.5 Z"/></g>
<g><path style="opacity:1" fill="#676767" d="M 452.5,319.5 C 447.695,320.487 442.695,320.821 437.5,320.5C 437.5,323.167 437.5,325.833 437.5,328.5C 441.702,328.183 445.702,328.517 449.5,329.5C 445.167,329.5 440.833,329.5 436.5,329.5C 436.5,326.167 436.5,322.833 436.5,319.5C 441.833,319.5 447.167,319.5 452.5,319.5 Z"/></g>
<g><path style="opacity:1" fill="#959595" d="M 437.5,333.5 C 437.5,336.167 437.5,338.833 437.5,341.5C 442.695,341.179 447.695,341.513 452.5,342.5C 447.167,342.5 441.833,342.5 436.5,342.5C 436.19,339.287 436.523,336.287 437.5,333.5 Z"/></g>
</svg>
